<svg width="61" height="30" viewBox="0 0 61 30" fill="none" xmlns="http://www.w3.org/2000/svg">
<g id="uil:print">
<path id="Vector" d="M24.75 12.5C24.5028 12.5 24.2611 12.5733 24.0555 12.7107C23.85 12.848 23.6898 13.0432 23.5952 13.2716C23.5005 13.5001 23.4758 13.7514 23.524 13.9939C23.5722 14.2363 23.6913 14.4591 23.8661 14.6339C24.0409 14.8087 24.2637 14.9278 24.5061 14.976C24.7486 15.0242 24.9999 14.9995 25.2284 14.9049C25.4568 14.8102 25.652 14.65 25.7893 14.4445C25.9267 14.2389 26 13.9972 26 13.75C26 13.4185 25.8683 13.1005 25.6339 12.8661C25.3995 12.6317 25.0815 12.5 24.75 12.5ZM39.75 7.5H38.5V3.75C38.5 3.41848 38.3683 3.10054 38.1339 2.86612C37.8995 2.6317 37.5815 2.5 37.25 2.5H24.75C24.4185 2.5 24.1005 2.6317 23.8661 2.86612C23.6317 3.10054 23.5 3.41848 23.5 3.75V7.5H22.25C21.2554 7.5 20.3016 7.89509 19.5983 8.59835C18.8951 9.30161 18.5 10.2554 18.5 11.25V18.75C18.5 19.7446 18.8951 20.6984 19.5983 21.4017C20.3016 22.1049 21.2554 22.5 22.25 22.5H23.5V26.25C23.5 26.5815 23.6317 26.8995 23.8661 27.1339C24.1005 27.3683 24.4185 27.5 24.75 27.5H37.25C37.5815 27.5 37.8995 27.3683 38.1339 27.1339C38.3683 26.8995 38.5 26.5815 38.5 26.25V22.5H39.75C40.7446 22.5 41.6984 22.1049 42.4017 21.4017C43.1049 20.6984 43.5 19.7446 43.5 18.75V11.25C43.5 10.2554 43.1049 9.30161 42.4017 8.59835C41.6984 7.89509 40.7446 7.5 39.75 7.5ZM26 5H36V7.5H26V5ZM36 25H26V20H36V25ZM41 18.75C41 19.0815 40.8683 19.3995 40.6339 19.6339C40.3995 19.8683 40.0815 20 39.75 20H38.5V18.75C38.5 18.4185 38.3683 18.1005 38.1339 17.8661C37.8995 17.6317 37.5815 17.5 37.25 17.5H24.75C24.4185 17.5 24.1005 17.6317 23.8661 17.8661C23.6317 18.1005 23.5 18.4185 23.5 18.75V20H22.25C21.9185 20 21.6005 19.8683 21.3661 19.6339C21.1317 19.3995 21 19.0815 21 18.75V11.25C21 10.9185 21.1317 10.6005 21.3661 10.3661C21.6005 10.1317 21.9185 10 22.25 10H39.75C40.0815 10 40.3995 10.1317 40.6339 10.3661C40.8683 10.6005 41 10.9185 41 11.25V18.75Z" fill="white"/>
</g>
</svg>
